<svg width="513" height="512" viewBox="0 0 513 512" fill="none" xmlns="http://www.w3.org/2000/svg">
<g clip-path="url(#clip0_1_13)">
<path d="M0.501953 56.2637C0.501953 25.1901 24.6314 0 54.3967 0H458.607C488.372 0 512.502 25.1901 512.502 56.2637V455.736C512.502 486.81 488.372 512 458.607 512H54.3967C24.6315 512 0.501953 486.81 0.501953 455.736V56.2637Z" fill="white"/>
<path d="M151.634 317.417C158.987 325.105 164.335 330.787 167.678 334.464C171.354 337.806 173.861 340.313 175.198 341.984C176.869 343.656 178.039 344.658 178.708 344.993C179.376 345.327 180.546 346.33 182.217 348.001C183.889 349.672 186.563 352.346 190.239 356.023C193.916 359.365 199.431 364.88 206.784 372.568C212.801 378.584 217.647 385.603 221.324 393.625C225.335 401.313 225.001 409.669 220.321 418.694C217.647 423.373 214.639 426.715 211.297 428.721C207.954 430.392 204.278 431.061 200.267 430.726C196.59 430.392 192.579 429.222 188.234 427.217C184.223 425.211 180.212 422.705 176.201 419.696C168.513 414.014 161.16 407.496 154.141 400.143C147.122 392.455 141.44 386.606 137.094 382.595C134.086 379.587 132.248 377.582 131.579 376.579C130.911 375.91 130.242 375.409 129.574 375.075C128.905 374.406 128.237 373.738 127.568 373.069C125.229 370.73 122.722 368.39 120.048 366.05C117.374 363.71 114.7 361.204 112.026 358.53V378.083C112.026 381.76 112.193 384.434 112.527 386.105C112.527 389.447 112.36 391.954 112.026 393.625C111.023 397.302 110.522 400.811 110.522 404.154C110.188 405.825 109.853 407.496 109.519 409.168C109.185 410.505 108.684 412.009 108.015 413.68C107.681 414.348 107.347 414.85 107.012 415.184C107.012 415.518 107.012 416.02 107.012 416.688C106.678 417.357 106.344 417.858 106.01 418.192C106.01 418.526 105.842 419.028 105.508 419.696C103.837 423.039 101.163 426.214 97.4863 429.222C91.1357 432.899 83.2809 433.902 73.9221 432.231C68.9084 431.228 65.0646 429.389 62.3906 426.716C59.3824 424.71 57.377 421.869 56.3742 418.192C55.7058 416.521 55.0373 414.85 54.3688 413.179C54.0345 411.173 53.5332 409.335 52.8647 407.664C52.1962 405.992 51.8619 404.488 51.8619 403.151C51.8619 401.48 51.8619 400.143 51.8619 399.14V113.862C51.8619 111.857 51.8619 109.852 51.8619 107.846C51.8619 105.841 52.0291 103.835 52.3633 101.83C52.6975 99.8242 53.0318 97.9858 53.366 96.3146C54.0345 94.3091 54.703 92.4708 55.3715 90.7995C56.7085 87.4571 58.3797 84.7831 60.3852 82.7777C62.0564 81.1065 63.7276 79.9366 65.3988 79.2681C67.4043 78.2654 69.2427 77.4298 70.9139 76.7613C72.5851 76.427 74.4235 76.2599 76.4289 76.2599C78.7686 75.9257 80.9412 75.7585 82.9467 75.7585C87.6261 75.7585 92.3055 77.0955 96.985 79.7695C101.33 82.7777 104.505 86.6215 106.511 91.3009C109.185 97.6516 110.522 103.835 110.522 109.851C110.856 113.194 111.19 118.375 111.525 125.394C111.859 132.079 112.026 137.092 112.026 140.435V142.44C112.36 153.47 112.527 163.999 112.527 174.026C112.527 184.054 112.527 194.917 112.527 206.615C112.193 218.314 112.026 229.511 112.026 240.207C112.026 250.569 112.026 260.93 112.026 271.292V276.807C114.7 274.133 117.374 271.626 120.048 269.286C122.722 266.947 125.229 264.44 127.568 261.766C128.905 260.763 130.242 259.593 131.579 258.256L137.094 252.741C141.44 248.396 147.122 242.547 154.141 235.193C161.16 227.506 168.513 220.821 176.201 215.139C184.557 209.122 192.579 205.445 200.267 204.108C208.288 202.772 214.973 206.782 220.321 216.141C225.001 225.166 225.335 233.689 221.324 241.711C217.647 249.399 212.801 256.585 206.784 263.27C199.431 270.957 193.916 276.64 190.239 280.316C186.563 283.659 183.889 286.166 182.217 287.837C180.546 289.174 179.376 290.009 178.708 290.344C178.039 290.678 176.869 291.681 175.198 293.352C173.861 294.689 171.354 297.196 167.678 300.872C164.335 304.215 158.987 309.73 151.634 317.417Z" fill="black"/>
<path d="M420.782 82.2763C427.133 80.6051 432.648 80.4379 437.327 81.7749C442.341 82.7777 446.519 84.9503 449.861 88.2927C453.538 91.6352 456.212 95.8132 457.883 100.827C459.889 105.841 460.891 111.356 460.891 117.372C461.226 134.084 461.226 147.12 460.891 156.479C460.891 165.837 460.891 174.026 460.891 181.046V334.965C460.891 353.015 460.891 368.056 460.891 380.088C460.891 392.121 460.223 401.981 458.886 409.669C457.883 417.022 455.878 422.537 452.869 426.214C450.195 429.891 446.017 432.398 440.335 433.735C434.653 435.406 427.133 436.241 417.774 436.241C408.749 436.241 397.385 436.241 383.681 436.241C347.582 436.241 319.004 427.718 297.947 410.672C277.224 393.625 266.194 366.551 264.857 329.45C264.188 313.407 266.194 298.7 270.873 285.33C275.553 271.96 282.405 260.596 291.429 251.237C300.788 241.544 312.152 234.191 325.522 229.177C339.226 223.829 354.769 221.322 372.149 221.656H399.724V131.912C399.724 126.564 399.724 121.383 399.724 116.369C399.724 111.021 400.226 106.175 401.229 101.83C402.231 97.1502 404.237 93.1393 407.245 89.7968C410.253 86.4544 414.766 83.9475 420.782 82.2763ZM333.544 360.535C340.563 370.228 353.264 375.576 371.648 376.579C375.325 376.913 378.834 377.08 382.177 377.08C385.519 376.746 388.527 376.245 391.201 375.576C394.209 375.242 397.051 374.74 399.724 374.072V281.319C388.026 279.314 377.33 278.144 367.637 277.809C358.278 277.141 348.919 280.483 339.56 287.837C334.547 291.848 330.703 297.029 328.029 303.379C325.355 309.396 323.851 315.913 323.517 322.932C323.182 329.617 323.851 336.302 325.522 342.987C327.193 349.672 329.867 355.521 333.544 360.535Z" fill="black"/>
</g>
<defs>
<clipPath id="clip0_1_13">
<rect width="512" height="512" fill="white" transform="translate(0.501953)"/>
</clipPath>
</defs>
</svg>
